<?xml version="1.0" encoding="UTF-8"?>
<svg width="1200pt" height="1200pt" version="1.1" viewBox="0 0 1200 1200" xmlns="http://www.w3.org/2000/svg">
 <path d="m673.2 600 272.4-272.4c20.398-20.398 20.398-52.801 0-73.199-20.398-20.398-52.801-20.398-73.199 0l-272.4 272.4-272.4-271.2c-20.398-20.398-52.801-20.398-73.199 0-20.398 20.398-20.398 52.801 0 73.199l272.4 271.2-271.2 272.4c-20.398 20.398-20.398 52.801 0 73.199 20.398 20.398 52.801 20.398 73.199 0l271.2-272.4 272.4 272.4c20.398 20.398 52.801 20.398 73.199 0 20.398-20.398 20.398-52.801 0-73.199z"/>
</svg>
