<?xml version="1.0" encoding="UTF-8"?>
<svg width="1200pt" height="1200pt" version="1.1" viewBox="0 0 1200 1200" xmlns="http://www.w3.org/2000/svg">
 <path d="m1014.3 653.81c-19.969-11.953-44.906-9.375-62.016 6.4219-47.438 43.828-109.17 67.969-173.81 67.969-141.32 0-256.26-114.98-256.26-256.26 0-90.141 48.234-174.66 125.9-220.69 20.016-11.859 29.625-34.969 23.906-57.562-5.7188-22.547-25.172-38.297-48.422-39.188-5.7656-0.23438-11.625-0.32812-17.391-0.32812-245.81 0-445.82 200.02-445.82 445.82 0 245.81 200.02 445.82 445.82 445.82 203.58 0 381.1-137.53 431.76-334.4 5.8125-22.547-3.7031-45.656-23.672-57.609zm-408.1 321.1c-206.72 0-374.9-168.19-374.9-374.9 0-191.26 143.95-349.55 329.21-372.14-25.594 22.875-47.625 49.734-64.969 79.547-28.969 49.734-44.297 106.64-44.297 164.48 0 180.42 146.81 327.24 327.24 327.24 61.031 0 120-16.828 171.1-48.234-58.922 134.39-192.66 224.02-343.36 224.02z"/>
</svg>
