<?xml version="1.0" encoding="UTF-8"?>
<svg width="1200pt" height="1200pt" version="1.1" viewBox="0 0 1200 1200" xmlns="http://www.w3.org/2000/svg">
 <path d="m693.59 331.43c1.8398 1.5312 4.1094 2.3203 6.4102 2.3203 1.4414 0 2.8906-0.30859 4.2383-0.94141 3.5117-1.6484 5.7617-5.1797 5.7617-9.0586v-13.75h40v40h-10c-3.8789 0-7.4102 4.1211-9.0508 7.6289-1.6484 3.5195-1.1094 8.6016 1.3711 11.578l25 30.469c1.8984 2.2812 4.7188 3.8281 7.6914 3.8281 2.9688 0 5.7812-1.1992 7.6914-3.4805l25-29.941c2.4805-2.9805 3.0195-8.9688 1.3711-12.488-1.6641-3.5039-5.1953-7.5938-9.0742-7.5938h-10v-40h40v13.75c0 3.8789 2.25 7.4102 5.7617 9.0586 1.3516 0.62891 2.7891 0.94141 4.2383 0.94141 2.2891 0 4.5703-0.78906 6.4102-2.3203l30-25c2.2695-1.8984 3.5898-4.7188 3.5898-7.6797s-1.3203-5.7812-3.5898-7.6797l-30-25c-2.9805-2.4805-7.1406-3.0117-10.641-1.3789-3.5195 1.6367-5.7695 5.168-5.7695 9.0586v6.25h-40v-40h10c3.8789 0 7.4102-0.37109 9.0508-3.8906 1.6484-3.5195 1.1094-6.7305-1.3711-9.7109l-25-29.531c-3.8086-4.5586-11.559-4.3281-15.371 0.23047l-25 30.121c-2.4805 2.9805-3.0195 5.3203-1.3711 8.8281 1.6523 3.5234 5.1836 3.9531 9.0625 3.9531h10v40h-40v-6.25c0-3.8789-2.25-7.4102-5.7617-9.0586-3.4805-1.6289-7.6484-1.1094-10.641 1.3789l-30 25c-2.2773 1.8906-3.5977 4.7109-3.5977 7.6797s1.3203 5.7812 3.5898 7.6797z"/>
 <path d="m814.82 558.75c-4.0703 0-14.398 1.3984-25.02 4.6992-2.7109-36.129-32.988-64.699-69.801-64.699-16.57 0-31.82 5.7891-43.82 15.449-8.8711-27.078-32.32-45.449-61.359-45.449-19.23 0-36.34 7.9102-48.539 20.828l-3.0781-86.148c34.141-24.52 56.441-64.531 56.441-109.68 0-74.441-60.559-135-135-135-74.441 0-135 60.559-135 135 0 51.762 29.379 96.621 72.262 119.24l4.5195 211.33c-8.0781 4.3906-20.34 12.422-36.031 26.672-54.289 49.34-72.059 168.68-10.75 261.05 68.25 102.82 148.22 146.71 267.42 146.71 126.29 0 168.54-63.379 201-128.3 31.219-62.441 31.578-301.56 31.578-311.7 0.003907-31.969-30.285-60-64.824-60zm6.4102 358.28c-30.559 61.121-64.75 111.72-174.16 111.72-109.36 0-179.59-38.621-242.42-133.3-36.609-55.16-52.5-169.16 5.9297-222.27 6.3086-5.7305 11.879-10.219 16.602-13.711l2.2383 104.59c0.17969 8.2812 6.6914 15.07 15.32 14.68 8.2812-0.17969 14.852-7.0312 14.68-15.32l-9.8398-459.67c0-26.488 16.461-45 40.039-45 23.578 0 40.039 18.512 40.051 45.539l10 280c0.26953 7.6914 6.3281 13.93 14 14.43 7.5898 0.46875 14.488-4.8789 15.781-12.469l7.5898-45c0.14063-0.82812 0.21094-1.6602 0.21094-2.5 0-22.801 16.16-40 37.59-40 24.172 0 35.18 20.73 35.18 40v30c0 8.2891 6.7188 15 15 15s15-6.7109 15-15c0-22.059 17.941-40 40-40 22.059 0 40 17.941 40 40v65c0 8.2812 6.7188 15 15 15s15-6.7188 15-15v-38.199c6-2.9219 17.762-6.8086 24.82-6.8086 17.898 0 34.82 14.578 34.82 30-0.011718 67.172-5.1289 251.69-28.43 298.29z"/>
</svg>
