<?xml version="1.0" encoding="UTF-8"?>
<svg width="1200pt" height="1200pt" version="1.1" viewBox="0 0 1200 1200" xmlns="http://www.w3.org/2000/svg">
 <path d="m315.98 315.98c-75.328 75.328-117.66 177.47-117.66 284.02s42.328 208.69 117.66 284.02c75.328 75.328 177.47 117.66 284.02 117.66s208.69-42.328 284.02-117.66c75.328-75.328 117.66-177.47 117.66-284.02s-42.328-208.69-117.66-284.02c-75.328-75.328-177.47-117.66-284.02-117.66s-208.69 42.328-284.02 117.66zm516.71 286.31-77.391 60.094c-1.5 0.75-3.1406 1.1719-4.8281 1.1719-1.875 0-3.7031-0.51562-5.2969-1.5-3.2812-1.9688-5.2969-5.4844-5.25-9.3281v-44.531h-122.29c-1.125 0-2.0625 0.9375-2.0156 2.0625v122.39h44.484c3.7969-0.046876 7.3125 1.9219 9.2812 5.2031 1.875 3.0469 2.0156 6.8906 0.375 10.078l-60.141 77.672c-1.9219 3.5156-5.625 5.6719-9.6094 5.6719-3.9844 0-7.6875-2.1562-9.6094-5.6719l-60.094-77.438c-0.75-1.4531-1.1719-3.1406-1.1719-4.7812 0-1.9219 0.51563-3.75 1.5-5.3438 1.9688-3.2812 5.4844-5.25 9.2812-5.2031h44.531v-122.39c0.046876-1.125-0.89062-2.0625-2.0156-2.0625h-122.39v44.391c0.046875 3.8438-1.9688 7.3594-5.25 9.3281-1.5938 0.98438-3.4219 1.5-5.2969 1.5-1.6875 0-3.3281-0.42188-4.8281-1.1719l-77.344-60.141c-3.5156-1.9219-5.7188-5.5781-5.7188-9.6094 0-3.9844 2.2031-7.6406 5.7188-9.5625l77.391-59.906c3.1875-1.7344 7.0312-1.5938 10.078 0.32812 3.2812 1.9219 5.2969 5.4375 5.25 9.2344v44.531h122.39v0.046875c1.125 0 2.0625-0.9375 2.0156-2.0625v-122.58h-44.531c-3.7969 0.046875-7.3125-1.9219-9.2812-5.1562-0.98437-1.5938-1.5-3.4688-1.5-5.3438 0-1.6875 0.42188-3.3281 1.1719-4.7812l60.094-77.438c1.9219-3.5156 5.5781-5.7188 9.6094-5.7188s7.6875 2.2031 9.6094 5.7188l60.141 77.391c1.6406 3.1875 1.5 7.0312-0.375 10.125-1.9688 3.2344-5.4844 5.2031-9.2812 5.1562h-44.484v122.39c-0.046876 1.125 0.89062 2.0625 2.0156 2.0625h122.34v-44.344c-0.046875-3.7969 1.9688-7.3125 5.25-9.2344 3.0469-1.9219 6.8906-2.0625 10.078-0.32812l77.438 60.094h-0.046875c3.5156 1.9219 5.7188 5.5781 5.7188 9.5625 0 4.0312-2.2031 7.6875-5.7188 9.6094z"/>
</svg>
