<?xml version="1.0" encoding="UTF-8"?>
<svg width="1200pt" height="1200pt" version="1.1" viewBox="0 0 1200 1200" xmlns="http://www.w3.org/2000/svg">
 <path d="m1061.2 580.78-153.61-119.16v0.046875c-6.3281-3.3281-13.922-3.0938-20.016 0.65625-6.4688 3.8906-10.359 10.875-10.266 18.375v88.219h-242.39c-1.0312 0.046875-2.0625-0.375-2.8594-1.125-0.75-0.79688-1.1719-1.8281-1.1719-2.9062v-242.39h88.266c7.5 0.09375 14.484-3.8438 18.375-10.266 3.7031-6.0938 3.9844-13.688 0.65625-20.016l-118.97-153.42c-3.7969-6.9844-11.109-11.344-19.031-11.344-7.9688 0-15.281 4.3594-19.031 11.344l-119.2 153.61c-1.5 3-2.2969 6.2812-2.2969 9.6094 0 3.75 1.0312 7.3594 2.9531 10.547 3.8906 6.4688 10.875 10.359 18.422 10.266h88.312v242.58c0 1.0781-0.42188 2.0625-1.2188 2.8594-0.75 0.75-1.7812 1.1719-2.8125 1.1719h-242.81v-88.594c0.09375-7.5-3.8438-14.484-10.266-18.375-6.0938-3.7031-13.688-3.9844-20.016-0.65625l-153.42 118.97c-6.9844 3.7969-11.344 11.109-11.344 19.031 0 7.9688 4.3594 15.281 11.344 19.031l153.61 119.2c3 1.5 6.2812 2.2969 9.6094 2.2969 3.75 0 7.3594-1.0312 10.547-2.9531 6.4688-3.8906 10.359-10.875 10.266-18.422v-88.312h242.68c2.2031 0.046875 3.9844 1.8281 4.0312 4.0312v242.63h-88.312v0.046876c-7.7344-0.14063-14.906 3.9375-18.75 10.641-1.9219 3.1875-2.9531 6.8438-2.9531 10.547 0 3.3281 0.79688 6.6562 2.2969 9.6094l119.2 153.61h-0.046875c3.7969 6.9844 11.109 11.391 19.078 11.391 7.9219 0 15.234-4.4062 19.031-11.391l119.16-153.61h-0.046875c3.3281-6.3281 3.0469-13.922-0.65625-20.016-3.8906-6.4219-10.875-10.359-18.375-10.266h-88.266v-243.05c0-2.2031 1.8281-4.0312 4.0312-4.0312h242.53v88.312l0.046875 0.046874c-0.09375 7.5 3.7969 14.484 10.266 18.375 3.1875 1.9219 6.8438 2.9531 10.547 2.9531 3.3281 0 6.6094-0.79688 9.6094-2.2969l153.61-119.2v0.046874c6.9844-3.7969 11.391-11.109 11.391-19.078 0-7.9219-4.4062-15.234-11.391-19.031z"/>
</svg>
