<?xml version="1.0" encoding="UTF-8"?>
<svg width="1200pt" height="1200pt" version="1.1" viewBox="0 0 1200 1200" xmlns="http://www.w3.org/2000/svg">
 <path d="m112.5 834.74h93.75l62.625-62.625c0-1.875 0.75-3.75 1.125-5.625l4.5-15.75c19.5-67.875 59.625-126 112.5-168.74-7.5-22.125-12-45.75-12-70.5 0-18.375 2.25-36.375 7.125-53.625-22.875-19.875-52.5-31.875-85.125-31.875-71.25 0-129.37 58.125-129.37 129.37 0 30 10.5 57.375 27.75 79.5-54.75 27.75-97.5 77.25-115.12 139.13l-3.75 13.125c-3.375 11.25-1.125 23.625 6 33s18.375 14.625 30 14.625z"/>
 <path d="m805.87 582c52.875 42.75 93 100.88 112.5 168.74l4.5 16.125c6.375 22.5 5.25 46.125-2.25 67.875h166.87c11.625 0 22.875-5.25 30-14.625s9.375-21.75 6-33l-3.75-13.125c-17.625-61.875-60.375-111.38-115.12-139.13 17.25-22.125 27.75-49.5 27.75-79.5 0-61.875-43.875-114-102.38-126.37-8.625-1.875-17.625-3-27-3-35.625 0-67.125 14.25-90.75 36.75 3.75 15.75 5.625 31.875 5.625 48.75 0 10.875-0.75 21.75-2.625 32.25-1.875 13.125-5.25 25.875-9.375 38.25z"/>
 <path d="m660.74 380.26c-19.5-9.75-41.25-15-64.5-15-80.625 0-146.26 65.625-146.26 146.26 0 23.25 5.625 45 15.375 64.125z"/>
 <path d="m1061 85.969-975 975c-14.625 14.625-14.625 38.391 0 53.016 7.3594 7.3594 16.922 11.016 26.531 11.016s19.172-3.6562 26.531-10.969l279.28-279.28h396.24c12 0 22.875-5.25 30-14.625s9.375-21.75 6-33l-4.5-15.75c-18-62.625-58.125-114.38-111-147.37-9.375-6-19.125-11.25-29.25-16.125 22.5-25.875 37.125-59.25 37.125-96.375 0-0.42187-0.09375-0.79687-0.09375-1.2656l371.26-371.26c14.625-14.625 14.625-38.391 0-53.016-14.719-14.625-38.438-14.625-53.109 0z"/>
</svg>
