<?xml version="1.0" encoding="UTF-8"?>
<svg width="1200pt" height="1200pt" version="1.1" viewBox="0 0 1200 1200" xmlns="http://www.w3.org/2000/svg">
 <path d="m600 332.48c-70.969 0-138.98 28.219-189.14 78.375-50.156 50.156-78.375 118.17-78.375 189.14s28.219 138.98 78.375 189.14c50.156 50.156 118.17 78.375 189.14 78.375s138.98-28.219 189.14-78.375c50.156-50.156 78.375-118.17 78.375-189.14-0.14062-70.922-28.359-138.89-78.516-189-50.109-50.156-118.08-78.375-189-78.516zm0 467.53c-52.078-0.65625-101.81-21.891-138.32-59.016-36.516-37.172-56.859-87.234-56.672-139.31 0.23438-52.078 21.047-102 57.844-138.84 36.844-36.797 86.766-57.609 138.84-57.844 52.078-0.1875 102.14 20.156 139.31 56.672 37.125 36.516 58.359 86.25 59.016 138.32 0 53.062-21.094 103.92-58.594 141.42-37.5 37.496-88.359 58.594-141.42 58.594zm35.016 164.48v100.5c0 19.312-15.703 35.016-35.016 35.016s-35.016-15.703-35.016-35.016v-102.98c0-19.359 15.703-35.016 35.016-35.016s35.016 15.656 35.016 35.016zm-266.02-133.5c13.734 13.828 13.734 36.141 0 50.016l-72.984 72.469c-6.6094 6.75-15.609 10.5-25.031 10.5-9.2344 0-18.094-3.7969-24.469-10.5-6.8438-6.5156-10.734-15.516-10.734-24.984s3.8906-18.469 10.734-24.984l72.984-73.5c14.062-13.125 36-12.703 49.5 0.98438zm-131.02-195.98h-102.98c-19.312 0-35.016-15.703-35.016-35.016s15.703-35.016 35.016-35.016h102.98c19.359 0 35.016 15.703 35.016 35.016s-15.656 35.016-35.016 35.016zm8.4844-339h0.046875c-13.828-13.828-13.828-36.188 0-50.016 13.781-13.828 36.188-13.828 49.969 0l72.516 73.5c13.734 13.828 13.734 36.141 0 50.016-6.7969 6.3281-15.703 9.8906-24.984 9.9844-9.1875-0.046875-17.953-3.6562-24.516-9.9844zm318.52-58.031v-102.98c0-19.312 15.703-35.016 35.016-35.016s35.016 15.703 35.016 35.016v102.98c0 19.359-15.703 35.016-35.016 35.016s-35.016-15.656-35.016-35.016zm266.02 131.02c-13.734-13.828-13.734-36.141 0-50.016l72.984-72.984c13.828-13.828 36.188-13.828 50.016 0s13.828 36.188 0 50.016l-73.5 72.984c-6.5625 6.375-15.328 9.9375-24.516 9.9844-9.2812-0.046875-18.188-3.6094-24.984-9.9844zm269.02 231c0 19.312-15.703 35.016-35.016 35.016h-102.98c-19.359 0-35.016-15.703-35.016-35.016s15.656-35.016 35.016-35.016h102.98c9.2812 0 18.188 3.7031 24.75 10.266s10.266 15.469 10.266 24.75zm-146.48 303.98h-0.046875c13.734 13.875 13.734 36.188 0 50.016-6.3281 6.75-15.234 10.547-24.469 10.5-9.4219 0-18.422-3.7969-25.031-10.5l-72.984-72.984c-13.828-13.828-13.828-36.188 0-50.016s36.188-13.828 50.016 0z"/>
</svg>
