<?xml version="1.0" encoding="UTF-8"?>
<svg width="1200pt" height="1200pt" version="1.1" viewBox="0 0 1200 1200" xmlns="http://www.w3.org/2000/svg">
 <path d="m273.48 720.84c6.6016 3.7188 13.441 6.7188 20.16 9.9609-5.0391 111 50.281 220.92 152.88 280.2 48.238 27.84 100.92 41.039 153 41.039 106.2 0 209.64-55.078 266.4-153.48 30.48-52.801 43.199-111.12 40.441-168 53.641-25.801 100.68-66.84 132.6-122.28 84.602-146.64 34.199-334.8-112.32-419.4-71.039-40.922-153.72-51.84-232.92-30.719-33.961 9.1211-65.398 24-93.602 43.199-6.3594-4.3203-12.719-8.6406-19.441-12.602-146.64-84.719-334.8-34.199-419.4 112.32-84.836 147-34.438 335.16 112.2 419.76zm563.16 160.92c-75.359 130.56-242.76 175.32-373.32 99.961-87.602-50.52-136.32-142.56-136.32-237.12 32.16 11.16 65.52 17.398 99.48 17.398 26.641 0 53.52-3.4805 79.922-10.559 33.961-9.1211 65.398-24 93.602-43.199 6.3594 4.3203 12.719 8.6406 19.441 12.602 48.238 27.84 100.92 41.039 153 41.039 34.32 0 68.16-6.3594 100.44-17.398 0.23438 46.676-11.285 94.074-36.246 137.28zm-173.04-290.16c-16.922 29.398-38.762 54.238-63.602 74.52-44.039-36-75.84-84.48-90.84-140.4-3.1211-11.762-5.2812-23.641-6.8398-35.52 61.68-23.52 131.4-24.48 195.72 0.23828-4.5586 35.16-16.199 69.48-34.438 101.16zm66.117-86.641c2.2812 1.1992 4.6797 2.2812 6.9609 3.6016 76.441 44.16 123.24 120 133.92 201.48-74.281 28.32-160.2 24.359-234.12-18.359-2.7617-1.5586-5.2812-3.4805-8.0391-5.1602 25.32-22.078 47.16-48.121 64.441-78 18.719-32.523 30.836-67.562 36.836-103.56zm-158.16 181.68c-71.398 44.398-161.16 54.359-242.52 23.039 4.4414-34.68 15.719-69.121 34.199-101.28 26.16-45.359 63.719-80.16 106.8-103.44 1.6797 9.8398 3.7188 19.559 6.3594 29.281 16.203 60.242 49.203 112.68 95.16 152.4zm201.96-504.84c46.32 0 93.238 11.762 136.2 36.602 130.44 75.359 175.32 242.76 99.961 373.32-26.281 45.48-63.84 80.16-106.92 103.44-14.52-87.48-66.602-168-149.28-215.76-6.4805-3.7188-13.199-6.9609-19.922-10.199 1.4414-31.078-1.8008-62.641-10.078-93.602-16.078-59.879-48.961-112.2-94.68-151.92 43.441-27.121 93.602-41.879 144.72-41.879zm-173.28 62.16c43.922 35.879 75.719 84.359 90.719 140.28 6.2383 23.398 9.1211 47.16 9.1211 70.801-66-22.801-136.44-21.602-200.04 0.35938-0.12109-47.641 12-94.68 36.48-137.04 16.922-29.402 38.762-54.004 63.719-74.402zm-409.92 74.398c75.359-130.44 242.76-175.32 373.32-99.961 2.7617 1.5586 5.2812 3.4805 8.0391 5.1602-25.32 22.078-47.16 48.121-64.441 78-29.762 51.602-43.441 109.32-40.68 167.4-53.641 25.801-100.44 67.441-132.36 122.76-19.078 33-30.84 68.039-36.719 103.56-2.3984-1.3203-4.8008-2.2812-7.0781-3.6016-130.56-75.355-175.44-242.88-100.08-373.32z"/>
</svg>
