<?xml version="1.0" encoding="UTF-8"?>
<svg width="1200pt" height="1200pt" version="1.1" viewBox="0 0 1200 1200" xmlns="http://www.w3.org/2000/svg">
 <path d="m180 297.6h21.602l62.398 772.8c3.6016 46.801 43.199 82.801 90 82.801h492c46.801 0 86.398-36 90-82.801l62.398-772.8 21.602 0.003906c39.602 0 72-32.398 72-72 0-39.602-32.398-72-72-72h-258v-31.199c0-42-34.801-76.801-76.801-76.801h-170.4c-42 0-76.801 34.801-76.801 76.801v31.199h-258c-39.602 0-72 32.398-72 72 0 39.598 32.398 72 72 72zm708 769.2c-1.1992 21.602-20.398 38.398-42 38.398h-492c-21.602 0-40.801-16.801-42-38.398l-62.398-769.2h699.6zm-402-943.2c0-15.602 13.199-28.801 28.801-28.801h170.4c15.602 0 28.801 13.199 28.801 28.801v31.199h-228zm-306 78h840c13.199 0 24 10.801 24 24 0 13.199-10.801 24-24 24h-840c-13.199 0-24-10.801-24-24 0-13.203 10.801-24 24-24z"/>
 <path d="m447.6 1034.4c13.199 0 24-10.801 24-24v-628.8c0-13.199-10.801-24-24-24-13.199 0-24 10.801-24 24v628.8c0 13.199 10.797 23.996 24 23.996z"/>
 <path d="m600 1040.4c13.199 0 24-10.801 24-24v-628.8c0-13.199-10.801-24-24-24s-24 10.801-24 24v628.8c0 13.199 10.801 23.996 24 23.996z"/>
 <path d="m752.4 1046.4c13.199 0 24-10.801 24-24v-628.8c0-13.199-10.801-24-24-24-13.199 0-24 10.801-24 24v628.8c0 13.199 10.801 23.996 24 23.996z"/>
</svg>
