<?xml version="1.0" encoding="UTF-8"?>
<svg id="Layer_1" data-name="Layer 1" xmlns="http://www.w3.org/2000/svg" viewBox="0 0 157.95 82.33">
  <defs>
    <style>
      .cls-1, .cls-2 {
        fill: #231f20;
      }

      .cls-2 {
        font-family: AnnaiMN-Regular, 'Annai MN';
        font-size: 30px;
      }
    </style>
  </defs>
  <g>
    <path class="cls-1" d="M34.26,37.22c.81-.69,1.22-1.46,1.22-2.29,0-.41-.1-.78-.31-1.11s-.51-.59-.89-.78-.81-.29-1.29-.29c-.86,0-1.66.32-2.4.96s-1.36,1.48-1.88,2.51-.88,2.14-1.11,3.31c1.17-.04,2.37-.26,3.6-.67s2.24-.96,3.05-1.66Z"/>
    <path class="cls-1" d="M41.17,0C18.43,0,0,18.43,0,41.17s18.43,41.17,41.17,41.17,41.17-18.43,41.17-41.17S63.9,0,41.17,0ZM22.81,32.33c-.02.19-.04.34-.07.46-.63,2.97-1.45,5.66-2.44,8.06-.99,2.41-2.05,4.3-3.18,5.68s-2.2,2.07-3.23,2.07c-1.17,0-2.14-.87-2.9-2.61s-1.32-3.85-1.67-6.35-.53-4.89-.53-7.19c0-.6.14-1.1.43-1.51s.76-.62,1.43-.62c.46,0,.83.14,1.11.42s.42.62.42,1c0,.19-.02.44-.07.77s-.07.54-.08.65c-.09.68-.16,1.26-.21,1.73s-.07.98-.07,1.52c0,1.66.12,3.24.37,4.75.24,1.51.55,2.72.92,3.64s.72,1.38,1.05,1.38c.29,0,.73-.42,1.33-1.25s1.21-1.98,1.85-3.46c.64-1.48,1.19-3.15,1.64-5.02.14-.6.26-1.22.36-1.86s.22-1.46.36-2.46c.08-.59.26-1.04.56-1.35s.69-.47,1.19-.47c.46,0,.82.13,1.08.38s.39.62.39,1.1c0,.16,0,.33-.03.52ZM28.2,45.1c.55.81,1.34,1.22,2.37,1.22.79,0,1.53-.21,2.23-.64s1.39-1.16,2.08-2.19c.14-.21.32-.38.54-.49s.48-.17.76-.17c.39,0,.72.13.98.39s.4.57.4.94c0,.64-.36,1.3-1.08,1.97s-1.63,1.22-2.72,1.66-2.13.66-3.13.66c-1.21,0-2.27-.26-3.18-.79s-1.61-1.29-2.11-2.28-.75-2.16-.75-3.51c0-1.85.38-3.66,1.14-5.45s1.81-3.25,3.13-4.39,2.8-1.71,4.42-1.71c1,0,1.85.19,2.56.58s1.26.93,1.63,1.64.56,1.54.56,2.5c0,1.32-.52,2.46-1.55,3.43s-2.37,1.71-4.01,2.23-3.34.8-5.12.85v.28c0,1.37.27,2.46.82,3.27ZM54.9,41.68c-.12.86-.21,1.7-.28,2.52s-.11,1.3-.12,1.45c-.02.34-.05.76-.1,1.25-.05.45-.23.8-.56,1.04s-.75.37-1.27.37c-.39,0-.72-.13-.99-.39s-.4-.57-.4-.95c0-.11.04-.33.12-.68.08-.35.14-.58.17-.7.14-.51.24-.94.31-1.3.22-1.12.48-2.67.78-4.64s.44-3.29.44-3.96c0-.94-.19-1.65-.56-2.14s-.91-.73-1.63-.73c-.81,0-1.6.26-2.37.78s-1.48,1.25-2.12,2.19-1.18,2.03-1.62,3.27c-.32,2.58-.56,4.82-.72,6.72-.02.29-.06.7-.12,1.22-.05.38-.23.69-.54.94s-.74.37-1.29.37c-.39,0-.72-.13-.99-.39s-.4-.57-.4-.95c0-.21.09-.66.26-1.35.14-.46.25-.93.34-1.41.25-1.2.55-2.95.88-5.26s.5-3.78.5-4.42c0-.44-.05-.97-.15-1.6-.07-.43-.1-.76-.1-.98,0-.47.13-.84.4-1.11s.61-.4,1.02-.4.77.1,1.02.29.42.5.52.91c.09.4.13.82.13,1.26,0,.26-.03.76-.09,1.48,1.69-2.71,3.6-4.06,5.73-4.06,1.43,0,2.52.48,3.3,1.44s1.16,2.28,1.16,3.96c0,.84-.22,2.82-.66,5.95ZM72.82,44.2c-.07.82-.11,1.3-.12,1.45-.02.34-.05.76-.1,1.25-.05.45-.23.8-.56,1.04s-.75.37-1.27.37c-.39,0-.72-.13-.99-.39s-.4-.57-.4-.95c0-.11.04-.33.12-.68.08-.35.14-.58.17-.7.14-.51.24-.94.31-1.3.22-1.12.48-2.67.78-4.64s.44-3.29.44-3.96c0-.94-.19-1.65-.56-2.14s-.91-.73-1.63-.73c-.81,0-1.6.26-2.37.78s-1.48,1.25-2.12,2.19c-.64.94-1.18,2.03-1.62,3.27-.32,2.58-.56,4.82-.72,6.72-.02.29-.06.7-.12,1.22-.05.38-.23.69-.54.94s-.74.37-1.29.37c-.39,0-.72-.13-.99-.39-.27-.26-.4-.57-.4-.95,0-.21.09-.66.26-1.35.14-.46.25-.93.34-1.41.25-1.2.55-2.95.88-5.26s.5-3.78.5-4.42c0-.44-.05-.97-.15-1.6-.07-.43-.1-.76-.1-.98,0-.47.13-.84.4-1.11.27-.27.61-.4,1.02-.4s.77.1,1.02.29c.25.2.42.5.52.91.09.4.13.82.13,1.26,0,.26-.03.76-.09,1.48,1.69-2.71,3.6-4.06,5.73-4.06,1.43,0,2.52.48,3.3,1.44s1.16,2.28,1.16,3.96c0,.84-.22,2.82-.66,5.95-.12.86-.21,1.7-.28,2.52Z"/>
  </g>
  <text class="cls-2" transform="translate(83.86 47.79)"><tspan x="0" y="0">wave</tspan></text>
</svg>