<?xml version="1.0" encoding="UTF-8"?>
<svg width="1200pt" height="1200pt" version="1.1" viewBox="0 0 1200 1200" xmlns="http://www.w3.org/2000/svg">
 <path d="m675.84 217.52c-10.094-10.438-65.73-26.867-55.801-16.602 66.367 68.613 133.85 144.92 179.15 229.32 18.211 33.926 47.82 91.016 6.1289 118.95-44.598 29.887-133.86 2.5664-180.95-6.5781-51.945-10.086-251.32-79.973-286.14-7.2383-8.9062 18.598 0.46484 41.621 6.4844 59.254 17.652 51.707 42.23 102.25 63.242 152.67 19.457 46.684 39.047 93.316 58.73 139.9-33.527-21.812-67.051-43.621-100.58-65.434-31.25-20.332-76.387 26.922-41.848 49.395 64.414 41.906 128.82 83.812 193.23 125.72 23.551 15.32 52.582-3.8867 53.605-29.793 3.0234-76.809 6.0508-153.62 9.0742-230.43 1.543-39.141-63.898-26.922-65.359 10.191-1.6211 41.125-3.2383 82.25-4.8594 123.38-13.969-33.242-28-66.453-41.871-99.734-22.098-53.031-52.035-107.8-67.195-163.16-4.9258-17.992-10.055-38.098 4.1562-53.27 34.273-36.594 130.24-5.8203 170.53 2.125 63.809 12.586 127.6 28.551 192.6 33.68 33.988 2.6836 94.574 8.082 113.95-28.812 19.625-37.375-13.07-91.449-31.242-122.45-47.266-80.648-110.17-154.03-175.03-221.08z"/>
</svg>
