<?xml version="1.0" encoding="UTF-8"?>
<svg width="1200pt" height="1200pt" version="1.1" viewBox="0 0 1200 1200" xmlns="http://www.w3.org/2000/svg">
 <path d="m1033.6 310.87c-36.891 85.641-83.531 143.53-134.86 183-106.78 82.031-236.63 84.938-354.66 83.906-57.938-0.51562-112.55-1.9219-158.34 8.8125-37.219 8.7188-67.875 26.203-86.344 63.797-13.031 26.438-17.531 52.781-15.656 77.906 35.484-13.734 74.625-20.531 117.42-17.156 56.578 4.5 111.33 33.469 139.6 72.938 22.406 31.266 29.906 68.719 14.531 108.09-13.875 35.438-37.031 57.188-64.547 68.531-37.125 15.375-84.516 10.875-130.5-11.859-44.906-22.172-88.031-61.406-116.77-110.16-8.3906 6.9844-16.406 14.344-23.953 21.938-73.781 73.922-111.28 172.22-114.56 178.4-9.7031 18.281-32.438 25.219-50.719 15.469-18.281-9.7031-25.219-32.438-15.469-50.719 3.6094-6.7969 46.219-114.56 127.6-196.18 14.766-14.766 30.75-28.688 47.906-41.156-10.781-46.969-7.4062-98.203 17.859-149.34 29.531-59.906 77.062-89.719 136.55-103.64 50.953-11.906 111.66-11.344 176.16-10.781 102.28 0.89062 215.76 2.7188 308.29-68.391 43.031-33.047 80.953-81.844 111.56-152.76-50.297 28.453-80.719 34.781-160.5 51.422-20.297 4.2188-40.172-8.8125-44.344-29.109-4.2188-20.25 8.8125-40.125 29.062-44.344 101.72-21.141 113.81-24 215.16-91.734 4.0781-6.6562 10.219-11.953 17.672-15.047 7.5938-3.0938 15.844-3.6562 23.766-1.5938 11.391 3 20.719 11.109 25.172 22.031 0 0 0.65625 1.5938 0.98438 2.3438 0.28125 0.65625 0.5625 1.3125 0.84375 1.9688 22.031 54.281 27.656 82.734 31.969 104.77 5.4844 27.844 9.0938 42.891 54.094 104.25 12.234 16.688 8.625 40.172-8.0625 52.406s-40.172 8.625-52.406-8.0625c-48.094-65.625-57.656-90.844-63.844-117.98-0.1875-0.70312-0.32812-1.4062-0.46875-2.1562zm-726.89 489.05c21.047 36.234 53.578 65.391 86.719 81.75 36.938 18.281 76.922 21.656 91.969-16.781 7.0312-17.906-1.0312-34.219-14.156-46.969-18.656-17.953-47.156-29.719-75.984-32.016-32.391-2.5781-61.875 3.0938-88.5 13.969z" fill-rule="evenodd"/>
</svg>
