<?xml version="1.0" encoding="UTF-8"?>
<svg width="1200pt" height="1200pt" version="1.1" viewBox="0 0 1200 1200" xmlns="http://www.w3.org/2000/svg">
 <path d="m1030.8 608.34c-63.188-27.281-113.11-31.594-155.06-21.469-53.906 12.938-93.797 48.234-131.16 81.281-65.156 57.797-125.44 107.53-207.71 90.234-13.078-2.7188-29.625-10.406-48.375-22.453-32.531-20.812-75.188-56.062-122.39-85.266-50.484-31.266-106.22-58.219-158.86-36.844-35.719 14.531-67.641 50.719-96.656 116.3-8.3438 18.891-30.516 27.469-49.453 19.125-18.938-8.3906-27.469-30.562-19.125-49.5 39.703-89.766 88.031-135.47 136.97-155.39 74.344-30.188 155.21-1.6406 226.6 42.516 41.203 25.547 79.125 55.5 109.97 76.922 15 10.406 27.094 19.219 36.75 21.234 31.078 6.5156 56.344-4.6406 80.672-21.469 20.766-14.344 40.828-32.766 61.922-51.469 46.078-40.875 96.75-82.125 163.36-98.156 25.781-6.1875 54.141-8.7656 85.688-5.9062-56.906-50.203-94.078-97.969-152.72-166.55-13.453-15.75-11.625-39.469 4.125-52.875 15.75-13.453 39.422-11.578 52.875 4.125 93.047 108.84 128.53 162.61 291.52 264.66 10.688 6.6562 16.828 17.906 17.531 29.578 0.09375 0.14062 0.14063 0.28125 0.1875 0.42188 8.9062 18.656 0.98438 41.062-17.719 49.969-144.14 68.625-197.26 109.69-268.87 261.56-8.8125 18.703-31.172 26.719-49.922 17.906-18.703-8.8125-26.719-31.172-17.906-49.922 67.078-142.22 119.48-199.18 227.76-258.52z" fill-rule="evenodd"/>
</svg>
