<?xml version="1.0" encoding="UTF-8"?>
<svg width="1200pt" height="1200pt" version="1.1" viewBox="0 0 1200 1200" xmlns="http://www.w3.org/2000/svg">
 <path d="m1059.9 908.62c-37.664 45.367-72.93-27.832-86.527-60.258-23.531-56.113-24.891-114.44-35.668-173.19-10.684-58.25-43.438-108-106.65-112.2-195.82-13.027-243.21 242.37-332.01 358.82-43.516 57.07-106.59 106.98-178.89 120.03-47.113 8.5039-105.81-30.41-110.05-93.16-5.5234-81.656 39.918-169.04 70.508-242.07 34.656-82.746 78.133-170.18 84.648-261.02 7.8203-109.1-60.098-196.77-151.09-245.23 38.992 6.7539 77.984 13.504 116.97 20.254 38.773 6.7148 54.117-52.344 11.695-59.688-75.738-13.117-151.48-26.23-227.21-39.344-22.703-3.9297-44.945 20.945-36.648 42.602 27.508 71.789 55.016 143.58 82.523 215.37 13.707 35.77 75.332 10.344 61.59-25.516-14.383-37.535-28.766-75.07-43.148-112.61 20.008 12.484 39.184 26.824 54.152 41.594 73.023 72.043 77.043 164.6 48.934 258.48-28.527 95.277-75.109 183.96-108.36 277.52-21.602 60.797-51.855 149.24-8.1484 207.78 68.426 91.641 208.35 44.145 285.39-4.8438 83.797-53.293 136.25-133.24 175.38-222.71 24.539-56.109 133.23-274.29 218.07-176.5 36.527 42.105 29.984 109.01 39.84 159.86 9.8906 51.059 25.949 109.71 62.734 148.72 52.762 55.965 127.67 31.633 171.78-21.508 17.594-21.191-46.719-16.961-59.809-1.1914z"/>
</svg>
