<?xml version="1.0" encoding="UTF-8"?>
<svg width="1200pt" height="1200pt" version="1.1" viewBox="0 0 1200 1200" xmlns="http://www.w3.org/2000/svg">
 <path d="m855.56 1099.6h-495.71c-91.172 0-173.95-37.172-233.95-97.219-60-60-97.219-142.78-97.219-233.95 0-91.172 37.172-173.95 97.219-233.95 60-60 142.78-97.219 233.95-97.219h475.78c25.688 0 49.078-10.594 66.141-27.609 17.016-17.016 27.609-40.453 27.609-66.094 0-25.688-10.594-49.078-27.609-66.141-17.016-17.016-40.453-27.609-66.141-27.609h-545.86c-19.219 0-36.75-7.875-49.641-20.719-12.797-12.844-20.625-30.328-20.625-49.594v-96.891c0-19.359 7.875-36.938 20.578-49.641 12.703-12.75 30.281-20.578 49.641-20.578h545.86c91.172 0 173.95 37.172 233.95 97.219 60 60 97.219 142.78 97.219 233.95 0 91.172-37.172 173.95-97.219 233.95-60 60-142.78 97.172-233.95 97.172h-475.78c-25.688 0-49.078 10.594-66.094 27.609s-27.609 40.453-27.609 66.141 10.594 49.078 27.609 66.094 40.453 27.609 66.094 27.609h495.71c4.2656 0 8.0156-1.6406 10.781-4.4062 2.7188-2.7188 4.4062-6.5156 4.4062-10.781v-2.3438c0-13.734 3.8906-26.719 11.016-37.875 7.125-11.109 17.297-20.109 29.859-25.875 12.562-5.8125 25.922-7.7344 38.906-5.9531 12.938 1.7812 25.359 7.2656 35.953 16.312l159.94 136.18c8.1094 6.8906 14.25 14.953 18.422 23.953 4.2188 9.1406 6.4219 19.031 6.4219 29.484 0 10.406-2.1562 20.344-6.4219 29.484-4.125 8.9531-10.312 17.016-18.422 23.906l-159.94 136.22c-10.641 9.0469-23.016 14.531-35.953 16.312s-26.344-0.14062-38.906-5.9531c-12.516-5.8125-22.734-14.812-29.859-25.922s-11.016-24.094-11.016-37.828v-2.3438c0-4.2656-1.6406-8.0156-4.4062-10.781-2.7188-2.7188-6.5156-4.4062-10.781-4.4062z" fill-rule="evenodd"/>
</svg>
